<svg width="50" height="50" viewBox="0 0 50 50" fill="none" xmlns="http://www.w3.org/2000/svg">
<path d="M49.9656 10.8348C49.8291 9.05321 48.2473 8.70692 46.9786 9.96989L42.5452 14.3841C41.5159 15.4162 39.829 15.413 38.7964 14.3841L35.9242 11.5283C34.8842 10.4876 34.8874 8.81373 35.921 7.78056L40.5051 3.22188C41.7749 1.95892 41.453 0.327242 39.6708 0.115886C36.2233 -0.293957 32.6305 0.815762 29.9837 3.44836C27.9674 5.4587 26.8417 8.02217 26.6033 10.6472C26.508 11.7085 26.5579 12.7793 26.7495 13.832L2.14659 38.3242C0.847559 39.6184 0.130333 41.3364 0.130333 43.1666C0.130333 44.9925 0.847559 46.7083 2.14339 48.0003C4.82383 50.6674 9.18357 50.6674 11.8684 48.0003C11.8684 48.0003 29.5535 30.3985 36.7151 23.261C37.8409 23.4142 38.9807 23.4034 40.102 23.2265C42.4704 22.8577 44.7467 21.777 46.5745 19.9609C49.0891 17.4577 50.217 14.1047 49.9656 10.8348ZM9.32979 45.8962C7.92346 47.2885 5.66128 47.2885 4.25922 45.893C2.86368 44.5072 2.86049 42.2445 4.26242 40.8553C5.66115 39.4662 7.92332 39.4695 9.32539 40.8553C10.7211 42.2445 10.7211 44.5072 9.32979 45.8962Z" fill="#60F166"/>
</svg>
