<svg width="58" height="58" viewBox="0 0 58 58" fill="none" xmlns="http://www.w3.org/2000/svg">
<g filter="url(#filter0_d)">
<path d="M52.5312 49.4551C52.8487 49.138 53.1065 48.8814 53.1065 48.8814L53.6817 48.3077C53.9992 47.9895 53.4564 46.5228 52.4683 45.0312L49.9341 41.2014C48.946 39.7099 47.3847 38.3402 46.4454 38.144C45.5061 37.9466 44.7443 37.787 44.7443 37.787L37.1072 30.188L34.327 32.9575L41.9578 40.5576L42.3186 42.2508C42.517 43.1847 43.894 44.741 45.3924 45.7235L49.2419 48.2493C50.7402 49.2318 52.2137 49.7722 52.5312 49.4551Z" fill="#60F166"/>
<path d="M5.69915 9.84455L17.0472 21.1406L18.4643 22.5481C18.4969 22.5826 18.5283 22.6009 18.5596 22.6333L20.434 20.7663L7.04803 7.44161C6.72187 7.12027 6.72187 6.59287 7.04803 6.27471C7.37086 5.94899 7.89308 5.94899 8.2203 6.27471L21.602 19.6026L23.6898 17.5201L10.3037 4.1975C9.97652 3.8751 9.97652 3.35301 10.3037 3.0306C10.6266 2.70925 11.1521 2.70925 11.4718 3.0306L24.8642 16.3617L26.7353 14.4927C26.7072 14.4603 26.6865 14.4258 26.6573 14.3945L25.1697 12.9115L13.8943 1.69095C11.6321 -0.565241 7.96026 -0.562057 5.69902 1.69095C3.43364 3.94196 3.43364 7.5926 5.69915 9.84455Z" fill="#60F166"/>
<path d="M53.9656 10.8348C53.8291 9.05321 52.2473 8.70692 50.9786 9.96989L46.5452 14.3841C45.5159 15.4162 43.829 15.413 42.7964 14.3841L39.9242 11.5283C38.8842 10.4876 38.8874 8.81373 39.921 7.78056L44.5051 3.22188C45.7749 1.95892 45.453 0.327242 43.6708 0.115886C40.2233 -0.293957 36.6305 0.815762 33.9837 3.44836C31.9674 5.4587 30.8417 8.02217 30.6033 10.6472C30.508 11.7085 30.5579 12.7793 30.7495 13.832L6.14659 38.3242C4.84756 39.6184 4.13033 41.3364 4.13033 43.1666C4.13033 44.9925 4.84756 46.7083 6.14339 48.0003C8.82383 50.6674 13.1836 50.6674 15.8684 48.0003C15.8684 48.0003 33.5535 30.3985 40.7151 23.261C41.8409 23.4142 42.9807 23.4034 44.102 23.2265C46.4704 22.8577 48.7467 21.777 50.5745 19.9609C53.0891 17.4577 54.217 14.1047 53.9656 10.8348ZM13.3298 45.8962C11.9235 47.2885 9.66128 47.2885 8.25922 45.893C6.86368 44.5072 6.86049 42.2445 8.26242 40.8553C9.66115 39.4662 11.9233 39.4695 13.3254 40.8553C14.7211 42.2445 14.7211 44.5072 13.3298 45.8962Z" fill="#60F166"/>
</g>
<defs>
<filter id="filter0_d" x="0" y="0" width="58" height="58.0006" filterUnits="userSpaceOnUse" color-interpolation-filters="sRGB">
<feFlood flood-opacity="0" result="BackgroundImageFix"/>
<feColorMatrix in="SourceAlpha" type="matrix" values="0 0 0 0 0 0 0 0 0 0 0 0 0 0 0 0 0 0 127 0"/>
<feOffset dy="4"/>
<feGaussianBlur stdDeviation="2"/>
<feColorMatrix type="matrix" values="0 0 0 0 0 0 0 0 0 0 0 0 0 0 0 0 0 0 0.25 0"/>
<feBlend mode="normal" in2="BackgroundImageFix" result="effect1_dropShadow"/>
<feBlend mode="normal" in="SourceGraphic" in2="effect1_dropShadow" result="shape"/>
</filter>
</defs>
</svg>
